<svg width="46" height="20" viewBox="0 0 46 20" fill="none" xmlns="http://www.w3.org/2000/svg">
<path d="M34.0178 7.81541C34.3784 7.81543 34.7608 7.85142 35.1646 7.92354C35.5686 7.98126 35.9654 8.07552 36.355 8.20537C36.7444 8.33518 37.1123 8.50072 37.4584 8.70261C37.8047 8.90462 38.1081 9.13597 38.3678 9.39569L38.7577 9.80694L37.2422 11.2348C36.795 10.7877 36.29 10.4704 35.7275 10.2829C35.1792 10.0953 34.5947 10.0011 33.9743 10.0011C33.8156 10.0011 33.6203 10.0156 33.3894 10.0445C33.1587 10.0589 32.9348 10.1027 32.7185 10.1748C32.5166 10.2469 32.3433 10.355 32.1991 10.4992C32.0549 10.629 31.9828 10.8022 31.9828 11.0185C31.9828 11.3216 32.149 11.5529 32.4809 11.7116C32.8127 11.8558 33.2311 11.9785 33.7359 12.0794C34.2409 12.1804 34.7825 12.2884 35.3596 12.4038C35.9511 12.5193 36.4997 12.6993 37.0046 12.9445C37.5095 13.1753 37.9278 13.5002 38.2597 13.9186C38.5915 14.337 38.7577 14.9 38.7577 15.607C38.7577 16.2419 38.6061 16.7834 38.3031 17.2307C38.0145 17.6635 37.6391 18.0166 37.1775 18.2907C36.7157 18.5505 36.2033 18.7381 35.6406 18.8535C35.0924 18.9834 34.5515 19.0485 34.0178 19.0485C33.0655 19.0485 32.1777 18.89 31.3553 18.5726C30.5473 18.2407 29.8258 17.7068 29.1909 16.971L30.7712 15.4988C31.6802 16.4511 32.7625 16.9276 34.0178 16.9276C34.2053 16.9275 34.4291 16.913 34.6887 16.8841C34.9627 16.8553 35.2226 16.7978 35.4678 16.7113C35.7275 16.6247 35.9434 16.5013 36.1166 16.3426C36.2897 16.1839 36.3763 15.9748 36.3763 15.7151C36.3762 15.4122 36.2031 15.1884 35.8569 15.0442C35.5251 14.8855 35.1067 14.756 34.6018 14.6551C34.1113 14.5396 33.5697 14.424 32.9781 14.3085C32.3868 14.1931 31.8388 14.0199 31.334 13.7891C30.8435 13.5439 30.4244 13.2122 30.0781 12.7938C29.7463 12.3754 29.5809 11.8123 29.5809 11.1054C29.5809 10.5282 29.718 10.0304 29.9921 9.61196C30.2663 9.19356 30.6193 8.85418 31.0522 8.59448C31.485 8.32033 31.9615 8.12582 32.4809 8.01039C33.0147 7.88054 33.5272 7.81541 34.0178 7.81541Z" fill="url(#paint0_linear_12778_1273)"/>
<path d="M19.8318 13.486C19.8318 13.9333 19.8824 14.3592 19.9834 14.7632C20.0844 15.1528 20.2429 15.4921 20.4594 15.7807C20.6758 16.0693 20.9577 16.2997 21.304 16.4729C21.6647 16.6316 22.0975 16.7113 22.6024 16.7113C23.1074 16.7113 23.5333 16.6316 23.8796 16.4729C24.2401 16.2998 24.5283 16.069 24.7447 15.7807C24.9611 15.4921 25.1205 15.1528 25.2215 14.7632C25.3225 14.3592 25.373 13.9333 25.373 13.486V8.16195H27.7537V13.8973C27.7537 14.6043 27.6311 15.2684 27.3859 15.8888C27.1406 16.5093 26.7867 17.0576 26.325 17.5338C25.8778 17.9954 25.3368 18.3632 24.7021 18.6373C24.0817 18.897 23.3816 19.0272 22.6024 19.0272C21.8233 19.0272 21.1163 18.897 20.4815 18.6373C19.861 18.3631 19.3195 17.9955 18.8578 17.5338C18.4105 17.0577 18.0643 16.5092 17.819 15.8888C17.5737 15.2684 17.4512 14.6043 17.4512 13.8973V8.16195H19.8318V13.486Z" fill="url(#paint1_linear_12778_1273)"/>
<path fill-rule="evenodd" clip-rule="evenodd" d="M6.34156 3.55137C7.01972 3.55137 7.65465 3.68161 8.24624 3.94134C8.85219 4.18663 9.37926 4.53284 9.82652 4.9801C10.2736 5.42726 10.6269 5.95377 10.8866 6.55953C11.1463 7.15104 11.2765 7.78614 11.2765 8.46421C11.2765 9.14237 11.1463 9.78501 10.8866 10.391C10.6269 10.9824 10.2737 11.502 9.82652 11.9492C9.37926 12.3964 8.85218 12.7495 8.24624 13.0092C7.65465 13.2689 7.01972 13.3992 6.34156 13.3992H2.48877V18.702H0V3.55137H6.34156ZM2.48877 11.062H6.06058C6.43555 11.0619 6.78891 10.9968 7.12063 10.867C7.4525 10.7227 7.74125 10.535 7.98655 10.3042C8.24625 10.0733 8.44078 9.80597 8.57064 9.50297C8.71482 9.18567 8.78687 8.84689 8.78691 8.48635C8.78691 8.14006 8.71492 7.81529 8.57064 7.51229C8.42637 7.19489 8.2318 6.92064 7.98655 6.6898C7.74125 6.45893 7.4525 6.27814 7.12063 6.14828C6.78893 6.0041 6.43552 5.93206 6.06058 5.93201H2.48877V11.062Z" fill="url(#paint2_linear_12778_1273)"/>
<path d="M15.3958 18.702H13.0152V3.55137H15.3958V18.702Z" fill="url(#paint3_linear_12778_1273)"/>
<path d="M41.811 3.27295H45.1172V4.90943H41.811V8.13214H40.1405V4.90943H36.8343V3.27295H40.1405V0H41.811V3.27295Z" fill="url(#paint4_linear_12778_1273)"/>
<defs>
<linearGradient id="paint0_linear_12778_1273" x1="-3" y1="1.36104e-07" x2="36.7983" y2="-14.9067" gradientUnits="userSpaceOnUse">
<stop stop-color="#3599FF"/>
<stop offset="0.995192" stop-color="#006CFF"/>
</linearGradient>
<linearGradient id="paint1_linear_12778_1273" x1="-3" y1="1.36104e-07" x2="36.7983" y2="-14.9067" gradientUnits="userSpaceOnUse">
<stop stop-color="#3599FF"/>
<stop offset="0.995192" stop-color="#006CFF"/>
</linearGradient>
<linearGradient id="paint2_linear_12778_1273" x1="-3" y1="1.36104e-07" x2="36.7983" y2="-14.9067" gradientUnits="userSpaceOnUse">
<stop stop-color="#3599FF"/>
<stop offset="0.995192" stop-color="#006CFF"/>
</linearGradient>
<linearGradient id="paint3_linear_12778_1273" x1="-3" y1="1.36104e-07" x2="36.7983" y2="-14.9067" gradientUnits="userSpaceOnUse">
<stop stop-color="#3599FF"/>
<stop offset="0.995192" stop-color="#006CFF"/>
</linearGradient>
<linearGradient id="paint4_linear_12778_1273" x1="-3" y1="1.36104e-07" x2="36.7983" y2="-14.9067" gradientUnits="userSpaceOnUse">
<stop stop-color="#3599FF"/>
<stop offset="0.995192" stop-color="#006CFF"/>
</linearGradient>
</defs>
</svg>
