<svg width="64" height="18" viewBox="0 0 64 18" fill="none" xmlns="http://www.w3.org/2000/svg">
<path fill-rule="evenodd" clip-rule="evenodd" d="M48.8057 11.543C48.8057 12.4571 48.6374 13.297 48.2998 14.0615C47.9791 14.8261 47.531 15.4905 46.957 16.0557C46.3831 16.6042 45.6996 17.0368 44.9062 17.3525C44.1297 17.6683 43.2856 17.8262 42.374 17.8262C41.4625 17.8262 40.6098 17.6684 39.8164 17.3525C39.0399 17.0368 38.365 16.6042 37.791 16.0557C37.2172 15.4906 36.7614 14.826 36.4238 14.0615C36.1031 13.2969 35.9424 12.4571 35.9424 11.543C35.9424 10.6788 36.0861 9.86407 36.373 9.09961C36.6601 8.33525 37.0902 7.67048 37.6641 7.10547C38.238 6.54039 38.947 6.09997 39.791 5.78418C40.652 5.45176 41.6482 5.28516 42.7793 5.28516H46.0205V0H48.8057V11.543ZM42.8047 7.95312C42.1294 7.95312 41.5387 8.04475 41.0322 8.22754C40.5258 8.41035 40.1033 8.66761 39.7656 9C39.428 9.31578 39.1671 9.69872 38.9814 10.1475C38.8127 10.5795 38.7276 11.0445 38.7275 11.543C38.7275 12.0581 38.8202 12.5405 39.0059 12.9893C39.1916 13.438 39.4449 13.8209 39.7656 14.1367C40.0864 14.4524 40.475 14.7009 40.9307 14.8838C41.3864 15.0666 41.8761 15.1582 42.3994 15.1582C42.9565 15.1582 43.4547 15.0588 43.8936 14.8594C44.3494 14.6433 44.7294 14.3607 45.0332 14.0117C45.3539 13.6626 45.5988 13.2554 45.7676 12.79C45.9364 12.3248 46.0205 11.8344 46.0205 11.3193V7.95312H42.8047Z" fill="#323336"/>
<path fill-rule="evenodd" clip-rule="evenodd" d="M57.3652 4.93652C58.2937 4.93652 59.1548 5.10313 59.9482 5.43555C60.7585 5.75134 61.4589 6.19176 62.0498 6.75684C62.6575 7.32198 63.1301 7.99516 63.4678 8.77637C63.8222 9.55743 64 10.3965 64 11.2939V17.4521H61.2402V16.2559C60.6494 16.8044 60.0076 17.1951 59.3154 17.4277C58.6233 17.6605 57.8719 17.7764 57.0615 17.7764C56.1331 17.7764 55.2889 17.6098 54.5293 17.2773C53.7698 16.945 53.1116 16.4965 52.5547 15.9316C52.0145 15.3499 51.5919 14.6766 51.2881 13.9121C50.9842 13.1309 50.832 12.2911 50.832 11.3936C50.8321 10.4795 50.9928 9.6317 51.3135 8.85059C51.6511 8.06958 52.1068 7.3883 52.6807 6.80664C53.2714 6.22505 53.9636 5.76795 54.7568 5.43555C55.5671 5.10316 56.4368 4.93656 57.3652 4.93652ZM57.3906 7.60449C56.8505 7.60452 56.3522 7.70384 55.8965 7.90332C55.4407 8.10275 55.0446 8.37753 54.707 8.72656C54.3694 9.05894 54.0991 9.45747 53.8965 9.92285C53.7108 10.3715 53.6182 10.8618 53.6182 11.3936C53.6182 11.9088 53.7108 12.3999 53.8965 12.8652C54.0991 13.3139 54.3694 13.7047 54.707 14.0371C55.0445 14.3692 55.441 14.6346 55.8965 14.834C56.3691 15.0168 56.8674 15.1084 57.3906 15.1084C57.9308 15.1084 58.429 15.0169 58.8848 14.834C59.3574 14.6346 59.7629 14.3694 60.1006 14.0371C60.4382 13.7047 60.7 13.3139 60.8857 12.8652C61.0883 12.4165 61.1895 11.9254 61.1895 11.3936C61.1894 10.8619 61.0958 10.3636 60.9102 9.89844C60.7245 9.43308 60.4636 9.03354 60.126 8.70117C59.7884 8.35209 59.3829 8.08614 58.9102 7.90332C58.4544 7.70383 57.9477 7.60449 57.3906 7.60449Z" fill="#323336"/>
<path fill-rule="evenodd" clip-rule="evenodd" d="M8.78418 0C9.47604 5.51058e-05 10.1259 0.132647 10.7334 0.398438C11.3412 0.664375 11.8733 1.0307 12.3291 1.49609C12.7848 1.96145 13.1394 2.51008 13.3926 3.1416C13.6626 3.77314 13.7979 4.4465 13.7979 5.16113C13.7978 5.87574 13.6626 6.54914 13.3926 7.18066C13.1393 7.81218 12.7848 8.36081 12.3291 8.82617C12.2001 8.95786 12.065 9.08213 11.9238 9.19922C11.9825 9.25465 12.0396 9.31181 12.0957 9.37012C12.6337 9.89526 13.0462 10.5102 13.332 11.2158C13.6178 11.9214 13.7607 12.6765 13.7607 13.4805V17.4521H10.9863V14.001C10.9863 13.4759 10.9272 12.9919 10.8096 12.5488C10.6919 12.1057 10.5071 11.7198 10.2549 11.3916C10.0028 11.0635 9.66625 10.8094 9.24609 10.6289C8.93916 10.4791 8.57795 10.3864 8.16406 10.3506L2.91211 10.3721V17.4521H0V0H8.78418ZM2.91211 7.6543H8.4541C8.79173 7.6543 9.10464 7.5959 9.3916 7.47949C9.69542 7.34654 9.9573 7.1721 10.1768 6.95605C10.3961 6.72344 10.5644 6.45728 10.6826 6.1582C10.8177 5.85903 10.8857 5.53459 10.8857 5.18555C10.8857 4.85321 10.8176 4.53739 10.6826 4.23828C10.5645 3.93932 10.396 3.68179 10.1768 3.46582C9.95734 3.23318 9.69536 3.05873 9.3916 2.94238C9.10464 2.80942 8.79173 2.74219 8.4541 2.74219H2.91211V7.6543Z" fill="#323336"/>
<path d="M19.6709 17.4521H16.8848V5.31055H19.6709V17.4521Z" fill="#323336"/>
<path d="M28.0059 4.93652C28.9174 4.93652 29.737 5.09436 30.4629 5.41016C31.2055 5.70929 31.8381 6.13332 32.3613 6.68164C32.9015 7.21352 33.3156 7.8371 33.6025 8.55176C33.8895 9.26644 34.0332 10.0313 34.0332 10.8457V17.4521H31.2471V11.3193C31.2471 10.7875 31.1885 10.2964 31.0703 9.84766C30.9521 9.39902 30.7668 9.00815 30.5137 8.67578C30.2604 8.34342 29.922 8.08613 29.5 7.90332C29.0949 7.70389 28.5966 7.60449 28.0059 7.60449C27.4153 7.60454 26.9092 7.70398 26.4873 7.90332C26.0822 8.08611 25.7522 8.34345 25.499 8.67578C25.2459 9.00814 25.0605 9.39904 24.9424 9.84766C24.8242 10.2964 24.7646 10.7875 24.7646 11.3193V17.4521H21.9795V10.8457C21.9795 10.0313 22.1231 9.26646 22.4102 8.55176C22.6971 7.83718 23.1018 7.21349 23.625 6.68164C24.1652 6.13317 24.7986 5.70934 25.5244 5.41016C26.2671 5.09441 27.0944 4.93657 28.0059 4.93652Z" fill="#323336"/>
<path d="M18.2783 0.449219C18.7676 0.449322 19.1726 0.615061 19.4932 0.947266C19.8309 1.26306 20 1.66252 20 2.14453C19.9999 2.62638 19.8308 3.03387 19.4932 3.36621C19.1726 3.68173 18.7675 3.83975 18.2783 3.83984C17.7889 3.83984 17.3832 3.68185 17.0625 3.36621C16.7418 3.03387 16.5811 2.62638 16.5811 2.14453C16.5811 1.66252 16.7418 1.26306 17.0625 0.947266C17.3832 0.614937 17.7888 0.449219 18.2783 0.449219Z" fill="#323336"/>
</svg>
